<svg xmlns="http://www.w3.org/2000/svg" shape-rendering="geometricPrecision" text-rendering="geometricPrecision" image-rendering="optimizeQuality" fill-rule="evenodd" clip-rule="evenodd" viewBox="0 0 512 387.951"><path fill-rule="nonzero" d="M369.365 154.355c-8.03-8.259-7.848-21.472.411-29.502 8.259-8.029 21.472-7.847 29.502.412l38.116 39.203 39.2-38.112c8.259-8.03 21.471-7.848 29.501.411 8.03 8.259 7.848 21.471-.411 29.501l-39.204 38.116 38.109 39.192c8.029 8.259 7.848 21.472-.412 29.502-8.259 8.029-21.471 7.847-29.501-.412l-38.108-39.195-39.196 38.108c-8.259 8.03-21.472 7.848-29.501-.411-8.03-8.259-7.848-21.472.411-29.501l39.196-38.113-38.113-39.199zm-93.106 39.619v165.515c0 8.235-3.313 15.17-8.406 20.179a28.834 28.834 0 01-20.182 8.283v-.051c-6.923-.005-13.945-2.479-19.606-7.935l-74.331-60.391H61.525c-16.886 0-32.269-6.911-43.414-18.048C6.938 290.365 0 274.99 0 258.096V145.542c0-16.897 6.938-32.269 18.111-43.429 11.145-11.138 26.528-18.048 43.414-18.048h91.363l74.6-75.513C233.283 2.653 240.542 0 247.671 0c3.728 0 7.432.743 10.864 2.143a28.89 28.89 0 019.318 6.136c5.085 5.009 8.406 11.931 8.406 20.179v165.516zm-26.663 165.515V28.458c0-.582-.154-.997-.387-1.226-.147-.146-.384-.285-.677-.403a2.296 2.296 0 00-.861-.166c-.427 0-.87.17-1.23.533l-77.885 78.838a13.309 13.309 0 01-10.153 4.693H61.525c-9.607 0-18.345 3.918-24.666 10.236-6.29 6.282-10.196 14.984-10.196 24.579v112.554c0 9.599 3.906 18.297 10.196 24.58 6.321 6.317 15.059 10.235 24.666 10.235h96.878v.044a13.224 13.224 0 018.385 2.977l78.321 63.632c.462.36.909.755 1.332 1.186.396.4.842.59 1.23.59v-.052c.3 0 .601-.059.861-.166.289-.115.526-.261.677-.407.233-.23.387-.645.387-1.226z"/></svg>